{"title":"scooby doo - the mystery begins x264-salman sk","uid":6682800,"size":738550399,"categoryP":"video","categoryS":"movies","magnet":"?xt=urn:btih:56c3f6cb9aacdd8e0fff0c03c81d1e492adb7f2c&amp;dn=scooby+doo+-+the+mystery+begins+x264-salman+sk&amp;tr=udp%3A%2F%2Ftracker.openbittorrent.com%3A80&amp;tr=udp%3A%2F%2Fopen.demonii.com%3A1337&amp;tr=udp%3A%2F%2Ftracker.coppersurfer.tk%3A6969&amp;tr=udp%3A%2F%2Fexodus.desync.com%3A6969","seeders":0,"leechers":0,"uploader":"salmansk","files":5,"time":1316268338,"description":"\n\n\n[img]http://i.minus.com/iYhNuSBqx0eQz.jpg[/img]\n\n[img]http://i.minus.com/iboIcxHdTgxvKN.jpg[/img]\n\n[img]http://i.minus.com/ijAC3IxhwQJb8.jpg[/img]\n\n[img]http://i.minus.com/i4KWCfRIchr4c.jpg[/img]\n\nComplete name                    : scooby doo - the mystery begins x264-salman sk.mkv\nFormat                           : Matroska\nFile size                        : 700 MiB\nDuration                         : 1h 22mn\nOverall bit rate                 : 1 188 Kbps\nEncoded date                     : UTC 2011-09-16 07:46:37\n\nvideo\nID                               : 1\nFormat                           : AVC\nFormat profile                   : Simple@L3\nFormat settings, BVOP            : No\nFormat settings, QPel            : No\nFormat settings, GMC             : No warppoints\nFormat settings, Matrix          : Default (H.263)\nCodec ID                         : V_MPEG4/ISO/AVC\nDuration                         : 1h 22mn\nBit rate                         : 1 036 Kbps\nWidth                            : 700 pixels\nHeight                           : 400 pixels\nDisplay aspect ratio             : 16:9\nFrame rate                       : 23.976 fps\nColor space                      : YUV\nChroma subsampling               : 4:2:0\nBit depth                        : 8 bits\nScan type                        : Progressive\nBits/(Pixel*Frame)               : 0.154\nStream size                      : 610 MiB (87%)\nWriting library                  : x264 core 112\n\naudio\nID                               : 2\nFormat                           : MPEG Audio\nFormat version                   : Version 1\nFormat profile                   : Layer 3\nMode                             : Joint stereo\nMode extension                   : MS Stereo\nCodec ID                         : A_MPEG/L3\nCodec ID/Hint                    : MP3\nDuration                         : 1h 22mn\nBit rate mode                    : Constant\nBit rate                         : 128 Kbps\nChannel(s)                       : 2 channels\nSampling rate                    : 48.0 KHz\nStream size                      : 75.4 MiB (11%)\nAudio language\t\t\t : English","torrent":{"xt":"urn:btih:56c3f6cb9aacdd8e0fff0c03c81d1e492adb7f2c","amp;dn":"scooby+doo+-+the+mystery+begins+x264-salman+sk","amp;tr":["udp%3A%2F%2Ftracker.openbittorrent.com%3A80","udp%3A%2F%2Fopen.demonii.com%3A1337","udp%3A%2F%2Ftracker.coppersurfer.tk%3A6969","udp%3A%2F%2Fexodus.desync.com%3A6969"],"infoHash":"56c3f6cb9aacdd8e0fff0c03c81d1e492adb7f2c","infoHashBuffer":{"type":"Buffer","data":[86,195,246,203,154,172,221,142,15,255,12,3,200,29,30,73,42,219,127,44]},"announce":[],"urlList":[]}}